<?xml version="1.0" standalone="no"?>
<!DOCTYPE svg PUBLIC "-//W3C//DTD SVG 20010904//EN"
 "http://www.w3.org/TR/2001/REC-SVG-20010904/DTD/svg10.dtd">
<svg version="1.0" xmlns="http://www.w3.org/2000/svg"
 width="512.000000pt" height="512.000000pt" viewBox="0 0 512.000000 512.000000"
 preserveAspectRatio="xMidYMid meet">
<metadata>
Created by potrace 1.14, written by Peter Selinger 2001-2017
</metadata>
<g transform="translate(0.000000,512.000000) scale(0.100000,-0.100000)"
fill="#000000" stroke="none">
<path d="M3525 5109 c-33 -5 -100 -20 -149 -34 -498 -142 -830 -598 -814
-1114 1 -60 6 -113 11 -117 12 -12 195 13 292 41 421 120 735 476 800 905 15
97 20 267 9 308 -7 25 -37 27 -149 11z"/>
<path d="M1600 3833 c-94 -10 -260 -47 -352 -79 -544 -189 -852 -606 -917
-1243 -58 -562 127 -1210 507 -1775 300 -446 651 -736 891 -736 102 0 241 31
456 100 283 92 344 104 490 104 149 0 231 -17 463 -95 387 -131 518 -139 702
-43 134 70 347 269 501 466 170 219 355 540 444 774 l24 61 -52 24 c-142 66
-308 207 -394 334 -81 120 -135 253 -170 415 -25 118 -25 427 0 552 56 280
184 495 378 640 38 28 69 54 69 58 0 10 -135 129 -212 188 -140 105 -335 192
-528 233 -81 18 -139 23 -255 23 -191 1 -245 -11 -585 -124 -307 -103 -359
-115 -455 -106 -87 7 -129 20 -330 101 -296 119 -462 150 -675 128z"/>
</g>
</svg>
